<svg width="345" height="493" viewBox="0 0 345 493" fill="none" xmlns="http://www.w3.org/2000/svg">
<g clip-path="url(#clip0)">
<path fill-rule="evenodd" clip-rule="evenodd" d="M224.059 219.034C224.059 213.699 232.458 209.384 242.812 209.384C253.166 209.384 261.565 213.699 261.565 219.034C261.565 224.368 253.166 228.675 242.812 228.675C232.458 228.675 224.059 224.376 224.059 219.034Z" fill="#8DC5E0"/>
<path fill-rule="evenodd" clip-rule="evenodd" d="M194.757 443.261L200.448 461.572L224.059 456.182L221.744 432.897L194.757 443.261Z" fill="#6A4D57"/>
<path fill-rule="evenodd" clip-rule="evenodd" d="M132.085 221.191H491.189C492.109 221.191 492.992 221.556 493.643 222.207C494.293 222.857 494.659 223.739 494.659 224.659V230.935C494.659 231.855 494.293 232.737 493.643 233.387C492.992 234.037 492.109 234.402 491.189 234.402H132.085C131.165 234.402 130.283 234.037 129.632 233.387C128.981 232.737 128.616 231.855 128.616 230.935V224.659C128.616 223.739 128.981 222.857 129.632 222.207C130.283 221.556 131.165 221.191 132.085 221.191Z" fill="#AADAF1"/>
<path d="M180.973 234.716L108.324 457.382" stroke="#AADAF1" stroke-width="2" stroke-linecap="round" stroke-linejoin="round"/>
<path d="M239.931 234.716L167.314 457.382" stroke="#AADAF1" stroke-width="2" stroke-linecap="round" stroke-linejoin="round"/>
<path d="M239.931 234.716L312.54 457.382" stroke="#AADAF1" stroke-width="2" stroke-linecap="round" stroke-linejoin="round"/>
<path d="M180.973 234.716L253.581 457.382" stroke="#AADAF1" stroke-width="2" stroke-linecap="round" stroke-linejoin="round"/>
<path fill-rule="evenodd" clip-rule="evenodd" d="M116.001 420.933L108.356 438.193L129.519 447.254L138.938 429.806L116.001 420.933Z" fill="#6A4D57"/>
<path fill-rule="evenodd" clip-rule="evenodd" d="M107.869 436.6L130.241 446.281C130.241 446.281 158.122 472.39 170.988 478.753C170.949 484.551 170.203 487.242 165.744 488.897C163.751 489.634 127.713 475.215 127.713 475.215L121.669 468.734L98.3556 458.018L107.869 436.6Z" fill="#7A7877"/>
<path d="M121.378 432.05C121.378 431.486 121.546 430.936 121.859 430.467C122.172 429.999 122.617 429.634 123.137 429.419C123.658 429.203 124.231 429.147 124.784 429.256C125.336 429.366 125.844 429.638 126.243 430.036C126.641 430.434 126.913 430.942 127.023 431.494C127.132 432.047 127.076 432.619 126.86 433.139C126.645 433.66 126.279 434.105 125.811 434.418C125.342 434.73 124.791 434.898 124.228 434.898C123.853 434.899 123.482 434.826 123.136 434.683C122.79 434.54 122.475 434.33 122.211 434.066C121.946 433.801 121.736 433.487 121.593 433.141C121.45 432.795 121.377 432.424 121.378 432.05V432.05Z" stroke="white" stroke-width="2" stroke-linecap="round" stroke-linejoin="round"/>
<path d="M110.601 435.761C110.601 435.195 110.769 434.643 111.083 434.173C111.397 433.703 111.844 433.337 112.366 433.121C112.889 432.905 113.464 432.849 114.018 432.96C114.573 433.071 115.082 433.344 115.481 433.744C115.881 434.144 116.152 434.654 116.261 435.208C116.371 435.763 116.313 436.337 116.096 436.859C115.878 437.38 115.511 437.826 115.04 438.139C114.569 438.452 114.016 438.618 113.45 438.616C112.694 438.614 111.969 438.312 111.435 437.777C110.901 437.242 110.601 436.517 110.601 435.761V435.761Z" stroke="white" stroke-width="2" stroke-linecap="round" stroke-linejoin="round"/>
<path d="M125.374 440.774C125.374 440.21 125.541 439.66 125.854 439.191C126.167 438.723 126.612 438.358 127.133 438.143C127.654 437.927 128.227 437.871 128.779 437.981C129.332 438.09 129.84 438.362 130.238 438.76C130.637 439.158 130.908 439.666 131.018 440.218C131.128 440.77 131.072 441.343 130.856 441.863C130.64 442.384 130.275 442.829 129.806 443.142C129.338 443.454 128.787 443.622 128.223 443.622C127.468 443.622 126.743 443.321 126.209 442.787C125.674 442.253 125.374 441.529 125.374 440.774Z" stroke="white" stroke-width="2" stroke-linecap="round" stroke-linejoin="round"/>
<path fill-rule="evenodd" clip-rule="evenodd" d="M96.5972 453.899L119.416 464.043C120.009 464.301 120.476 464.784 120.714 465.385C120.952 465.986 120.943 466.657 120.688 467.252L118.694 471.731C118.56 472.022 118.371 472.284 118.136 472.501C117.901 472.719 117.625 472.888 117.325 472.999C117.024 473.109 116.705 473.16 116.385 473.147C116.065 473.134 115.75 473.058 115.46 472.924L92.6253 462.78C92.3312 462.653 92.065 462.47 91.8419 462.241C91.6187 462.012 91.4431 461.74 91.325 461.443C91.2068 461.146 91.1486 460.828 91.1535 460.508C91.1584 460.188 91.2264 459.872 91.3537 459.579L93.3396 455.099C93.474 454.806 93.6651 454.542 93.9018 454.323C94.1384 454.104 94.4161 453.934 94.7188 453.822C95.0215 453.711 95.3433 453.66 95.6656 453.673C95.988 453.687 96.3046 453.763 96.5972 453.899Z" fill="#3C1B09"/>
<path fill-rule="evenodd" clip-rule="evenodd" d="M58.0007 255.758C109.973 241.126 184.528 249.23 200.612 271.55C206.358 279.521 204.412 291.995 202.967 296.694C201.523 301.394 140.704 431.807 140.704 431.807L113.435 421.443L140.233 315.531C140.233 315.531 51.5405 257.562 58.0007 255.758Z" fill="#BEBEBE"/>
<path d="M123.09 425.107L154.48 324.012" stroke="#8D8D8D" stroke-width="2" stroke-linecap="round" stroke-linejoin="round"/>
<path d="M116.174 410.569L145.438 421.553" stroke="#8D8D8D" stroke-width="2" stroke-linecap="round" stroke-linejoin="round"/>
<path fill-rule="evenodd" clip-rule="evenodd" d="M199.977 459.885L223.415 453.201C223.415 453.201 261.541 455.735 275.529 452.503C279.179 457.014 280.333 459.563 277.884 463.674C276.808 465.502 239.79 477.184 239.79 477.184L231.006 475.999L206.209 482.487L199.977 459.885Z" fill="#7A7877"/>
<path fill-rule="evenodd" clip-rule="evenodd" d="M202.229 480.416L226.312 473.803C226.619 473.714 226.941 473.686 227.259 473.722C227.576 473.758 227.884 473.855 228.164 474.01C228.444 474.164 228.691 474.372 228.89 474.622C229.09 474.872 229.238 475.159 229.326 475.466L230.629 480.173C230.711 480.482 230.73 480.805 230.687 481.122C230.643 481.44 230.538 481.745 230.376 482.021C230.214 482.298 229.999 482.539 229.743 482.732C229.488 482.925 229.197 483.066 228.887 483.146L204.804 489.76C204.497 489.849 204.175 489.876 203.857 489.84C203.54 489.805 203.232 489.707 202.952 489.553C202.672 489.398 202.425 489.19 202.226 488.94C202.027 488.69 201.878 488.404 201.79 488.097L200.487 483.389C200.405 483.08 200.386 482.757 200.429 482.44C200.473 482.123 200.578 481.817 200.74 481.541C200.902 481.265 201.117 481.023 201.373 480.83C201.628 480.637 201.919 480.496 202.229 480.416Z" fill="#3C1B09"/>
<path d="M210.448 451.687C210.446 451.121 210.613 450.568 210.926 450.097C211.24 449.626 211.686 449.259 212.208 449.042C212.73 448.825 213.306 448.768 213.861 448.878C214.416 448.987 214.925 449.26 215.325 449.659C215.726 450.059 215.998 450.569 216.108 451.124C216.218 451.678 216.161 452.253 215.943 452.775C215.726 453.297 215.359 453.743 214.888 454.056C214.417 454.37 213.863 454.536 213.297 454.534C212.542 454.534 211.817 454.234 211.282 453.7C210.748 453.166 210.448 452.442 210.448 451.687Z" stroke="white" stroke-width="2" stroke-linecap="round" stroke-linejoin="round"/>
<path d="M215.558 442.476C215.556 441.911 215.723 441.357 216.036 440.887C216.35 440.416 216.796 440.049 217.318 439.831C217.841 439.614 218.416 439.557 218.971 439.667C219.526 439.777 220.036 440.049 220.436 440.449C220.836 440.849 221.108 441.358 221.218 441.913C221.328 442.468 221.271 443.043 221.053 443.565C220.836 444.087 220.469 444.533 219.998 444.846C219.527 445.159 218.973 445.326 218.407 445.324C217.652 445.322 216.929 445.021 216.395 444.488C215.861 443.954 215.56 443.231 215.558 442.476V442.476Z" stroke="white" stroke-width="2" stroke-linecap="round" stroke-linejoin="round"/>
<path d="M199.977 449.655C199.977 449.091 200.144 448.541 200.457 448.072C200.77 447.604 201.215 447.239 201.736 447.024C202.256 446.808 202.829 446.752 203.382 446.861C203.935 446.971 204.442 447.243 204.841 447.641C205.239 448.039 205.511 448.547 205.621 449.099C205.731 449.651 205.674 450.224 205.458 450.744C205.243 451.265 204.878 451.71 204.409 452.023C203.94 452.335 203.39 452.503 202.826 452.503C202.07 452.503 201.345 452.202 200.811 451.668C200.277 451.134 199.977 450.41 199.977 449.655Z" stroke="white" stroke-width="2" stroke-linecap="round" stroke-linejoin="round"/>
<path fill-rule="evenodd" clip-rule="evenodd" d="M15.4088 319.799H134.566C138.652 319.799 142.572 321.421 145.461 324.309C148.351 327.198 149.975 331.115 149.975 335.199C149.975 339.284 148.351 343.201 145.461 346.089C142.572 348.977 138.652 350.599 134.566 350.599H15.4088C11.3221 350.599 7.40283 348.977 4.51313 346.089C1.62342 343.201 0 339.284 0 335.199H0C0 331.115 1.62342 327.198 4.51313 324.309C7.40283 321.421 11.3221 319.799 15.4088 319.799Z" fill="#AADAF1"/>
<path fill-rule="evenodd" clip-rule="evenodd" d="M69.9949 340.079H79.9796C80.7707 340.079 81.5294 340.393 82.0888 340.952C82.6482 341.511 82.9625 342.27 82.9625 343.06V453.365C82.9625 454.156 82.6482 454.914 82.0888 455.473C81.5294 456.033 80.7707 456.347 79.9796 456.347H69.9949C69.2038 456.347 68.4451 456.033 67.8857 455.473C67.3263 454.914 67.0121 454.156 67.0121 453.365V343.06C67.0121 342.27 67.3263 341.511 67.8857 340.952C68.4451 340.393 69.2038 340.079 69.9949 340.079Z" fill="#AADAF1"/>
<path fill-rule="evenodd" clip-rule="evenodd" d="M65.9759 420.933H84.03C85.3333 420.933 86.5831 421.45 87.5046 422.371C88.4262 423.292 88.9439 424.541 88.9439 425.844V452.471C88.9439 453.119 88.8155 453.761 88.5661 454.36C88.3167 454.958 87.9513 455.501 87.4908 455.958C87.0303 456.414 86.484 456.775 85.8833 457.02C85.2826 457.264 84.6394 457.387 83.9908 457.382H65.9367C64.6334 457.382 63.3836 456.865 62.4621 455.944C61.5405 455.023 61.0228 453.774 61.0228 452.471V425.844C61.0228 425.196 61.1512 424.554 61.4006 423.956C61.65 423.357 62.0155 422.814 62.4759 422.357C62.9364 421.901 63.4827 421.54 64.0834 421.295C64.6841 421.051 65.3273 420.928 65.9759 420.933Z" fill="#AADAF1"/>
<path d="M15.1655 476.344V471.143C15.1655 467.493 16.6161 463.993 19.1981 461.413C21.7802 458.832 25.2822 457.382 28.9337 457.382H74.9874" stroke="#AADAF1" stroke-width="2" stroke-linecap="round" stroke-linejoin="round"/>
<path d="M134.676 476.344V471.143C134.675 469.334 134.317 467.543 133.623 465.873C132.93 464.202 131.913 462.684 130.632 461.407C129.352 460.129 127.831 459.116 126.159 458.425C124.486 457.735 122.694 457.38 120.884 457.382H74.8459" stroke="#AADAF1" stroke-width="2" stroke-linecap="round" stroke-linejoin="round"/>
<path d="M52.4197 476.344V470.068C52.4197 463.062 56.0697 457.382 60.5676 457.382H89.407C93.9048 457.382 97.5549 463.062 97.5549 470.068V476.344" stroke="#AADAF1" stroke-width="2" stroke-linecap="round" stroke-linejoin="round"/>
<path d="M7.62195 483.892C7.62195 482.4 8.06437 480.943 8.89325 479.703C9.72214 478.463 10.9003 477.497 12.2787 476.926C13.657 476.355 15.1738 476.206 16.6371 476.497C18.1004 476.788 19.4445 477.506 20.4995 478.56C21.5544 479.615 22.2729 480.958 22.5639 482.421C22.855 483.883 22.7056 485.399 22.1347 486.777C21.5637 488.154 20.5969 489.332 19.3563 490.16C18.1158 490.989 16.6574 491.431 15.1654 491.431C13.1654 491.429 11.2479 490.634 9.83368 489.22C8.41945 487.807 7.62403 485.89 7.62195 483.892V483.892Z" stroke="#AADAF1" stroke-width="2" stroke-linecap="round" stroke-linejoin="round"/>
<path d="M44.8761 483.892C44.8761 482.4 45.3185 480.943 46.1474 479.703C46.9763 478.463 48.1544 477.497 49.5328 476.926C50.9112 476.355 52.4279 476.206 53.8912 476.497C55.3545 476.788 56.6986 477.506 57.7536 478.56C58.8086 479.615 59.527 480.958 59.8181 482.421C60.1091 483.883 59.9598 485.399 59.3888 486.777C58.8179 488.154 57.851 489.332 56.6105 490.16C55.37 490.989 53.9115 491.431 52.4196 491.431C50.4196 491.429 48.502 490.634 47.0878 489.22C45.6736 487.807 44.8782 485.89 44.8761 483.892V483.892Z" stroke="#AADAF1" stroke-width="2" stroke-linecap="round" stroke-linejoin="round"/>
<path d="M97.5548 476.344C99.0487 476.343 100.509 476.784 101.752 477.612C102.995 478.441 103.964 479.619 104.537 480.998C105.11 482.377 105.26 483.895 104.97 485.359C104.679 486.824 103.961 488.169 102.905 489.225C101.849 490.282 100.504 491.001 99.0388 491.293C97.5737 491.585 96.055 491.436 94.6747 490.865C93.2945 490.294 92.1146 489.327 91.2845 488.085C90.4544 486.844 90.0114 485.385 90.0114 483.892C90.0114 481.891 90.8059 479.973 92.2203 478.558C93.6348 477.142 95.5535 476.346 97.5548 476.344" stroke="#AADAF1" stroke-width="2" stroke-linecap="round" stroke-linejoin="round"/>
<path d="M127.164 483.892C127.164 482.4 127.606 480.943 128.435 479.703C129.264 478.463 130.442 477.497 131.82 476.926C133.199 476.355 134.715 476.206 136.179 476.497C137.642 476.788 138.986 477.506 140.041 478.56C141.096 479.615 141.815 480.958 142.106 482.421C142.397 483.883 142.247 485.399 141.676 486.777C141.105 488.154 140.139 489.332 138.898 490.16C137.657 490.989 136.199 491.431 134.707 491.431C132.707 491.429 130.79 490.634 129.375 489.22C127.961 487.807 127.166 485.89 127.164 483.892V483.892Z" stroke="#AADAF1" stroke-width="2" stroke-linecap="round" stroke-linejoin="round"/>
<path fill-rule="evenodd" clip-rule="evenodd" d="M19.8753 225.059C-27.6698 324.318 68.2917 326.993 101.966 326.499C135.641 326.005 144.504 323.47 153.617 321.266C156.529 330.084 191.436 444.281 191.436 444.281L222.089 435.023C222.089 435.023 198.658 289.947 193.367 280.149C178.838 253.208 92.8923 251.749 82.0206 252.4C71.1489 253.051 25.9038 212.475 19.8753 225.059Z" fill="#BEBEBE"/>
<path d="M22.8424 238.623C-9.72565 319.862 129.95 314.966 160.501 305.662C165.069 318.724 202.889 440.138 202.889 440.138" stroke="#8D8D8D" stroke-width="2" stroke-linecap="round" stroke-linejoin="round"/>
<path d="M138.993 324.247C143.919 323.522 148.801 322.527 153.617 321.266C154.826 324.922 161.537 346.708 168.971 370.95" stroke="#8D8D8D" stroke-width="2" stroke-linecap="round" stroke-linejoin="round"/>
<path d="M199.239 304.226C196.68 291.462 194.529 282.361 193.367 280.149C179.709 254.84 102.971 252.015 84.7678 252.313" stroke="#8D8D8D" stroke-width="2" stroke-linecap="round" stroke-linejoin="round"/>
<path d="M220.621 426.048L188.799 435.659" stroke="#8D8D8D" stroke-width="2" stroke-linecap="round" stroke-linejoin="round"/>
<path fill-rule="evenodd" clip-rule="evenodd" d="M77.452 71.1414C77.452 67.9261 78.4061 64.7829 80.1936 62.1095C81.9811 59.4362 84.5217 57.3527 87.4941 56.1226C90.4665 54.8924 93.7371 54.571 96.8923 55.1989C100.048 55.8267 102.946 57.3757 105.22 59.6498C107.494 61.924 109.043 64.8212 109.669 67.975C110.296 71.1287 109.973 74.3974 108.741 77.3676C107.508 80.3378 105.422 82.876 102.747 84.6612C100.071 86.4464 96.9257 87.3985 93.7086 87.3969C91.5731 87.3969 89.4585 86.9764 87.4857 86.1594C85.5128 85.3424 83.7203 84.1449 82.2107 82.6353C80.701 81.1258 79.5037 79.3337 78.6872 77.3616C77.8707 75.3894 77.451 73.2758 77.452 71.1414Z" fill="#7A7877"/>
<path fill-rule="evenodd" clip-rule="evenodd" d="M231.155 204.959C233.832 202.762 241.085 197.404 243.408 197.435C245.732 197.467 252.765 204.073 252.922 205.806C253.079 207.54 250.842 210.278 249.508 210.474C248.173 210.67 243.879 206.552 242.937 206.92C241.995 207.289 239.923 209.486 239.319 210.459C238.714 211.431 228.486 207.117 231.155 204.959Z" fill="#FADDBC"/>
<path fill-rule="evenodd" clip-rule="evenodd" d="M135.233 161.888L151.293 178.269C151.293 178.269 163.445 152.199 171.906 138.407C170.195 135.944 167.197 126.129 167.581 124.286C167.966 122.442 176.805 105.041 178.94 106.053C181.075 107.065 183.069 110.462 181.977 113.898C183.241 109.372 185.376 103.111 187.26 102.491C189.144 101.872 193.108 102.687 192.935 105.865C193.838 103.786 195.432 102.327 197.253 102.248C198.823 102.177 202.025 103.519 202.245 105.496C202.512 107.967 198.98 113.867 198.548 114.706C200.196 112.463 200.181 112.353 201.17 112.353C203.156 112.423 206.515 115.373 204.875 119.633C203.234 123.893 195.126 143.773 188.846 144.621C189.136 148.481 170.423 202.339 170.423 202.339L142.07 201.209L121.418 173.907L135.233 161.888Z" fill="#FADDBC"/>
<path fill-rule="evenodd" clip-rule="evenodd" d="M79.3752 102.711C27.2303 102.774 9.80415 225.098 15.2518 233.485C19.2472 239.635 66.549 257.719 82.7584 252.164C88.4807 250.203 103.371 219.645 111.802 188.813C120.79 181.439 137.8 167.474 140.571 164.783C139.786 158.876 126.12 135.073 111.967 124.529C107.076 113.365 98.0023 102.711 79.3752 102.711Z" fill="#CFAE96"/>
<path fill-rule="evenodd" clip-rule="evenodd" d="M92.8608 185.824C92.8608 185.824 117.752 217.206 124.299 219.755C130.845 222.305 201.554 221.489 206.719 220.885C211.884 220.281 210.942 224.219 215.613 224.47C220.448 224.737 223.235 220.461 223.894 218.304C226.846 221.583 232.05 226.628 235.465 224.87C237.882 223.615 237.914 222.517 236.25 220.783C238.604 222.14 242.859 224.133 244.578 222.791C247.341 220.642 247.6 218.633 246.666 216.962C243.785 211.792 234.507 204.473 232.301 203.625C229.758 202.621 222.01 205.383 218.282 205.61C201.382 206.654 158.766 196.149 144.786 195.513C142.729 191.591 121.418 165.834 119.769 163.261C113.921 168.259 92.8608 185.824 92.8608 185.824Z" fill="#FADDBC"/>
<path fill-rule="evenodd" clip-rule="evenodd" d="M85.9139 77.551C85.9124 72.6688 87.3596 67.8958 90.0725 63.8358C92.7854 59.7758 96.6422 56.6111 101.155 54.742C105.668 52.873 110.634 52.3835 115.425 53.3356C120.216 54.2877 124.617 56.6385 128.071 60.0908C131.525 63.543 133.877 67.9415 134.83 72.73C135.782 77.5184 135.292 82.4817 133.422 86.9919C131.552 91.5022 128.386 95.3568 124.324 98.0682C120.261 100.78 115.486 102.226 110.601 102.225C104.054 102.222 97.7762 99.6222 93.1469 94.9955C88.5176 90.3688 85.916 84.0942 85.9139 77.551Z" fill="#FADDBC"/>
<path fill-rule="evenodd" clip-rule="evenodd" d="M89.2265 72.177C89.3285 76.0133 81.2905 100.271 78.1193 104.915C79.6892 108.626 95.0509 117.931 102.108 115.946C102.893 111.239 105.522 101.777 107.147 99.6748C108.772 97.5723 89.1244 68.3092 89.2265 72.177Z" fill="#FADDBC"/>
<path fill-rule="evenodd" clip-rule="evenodd" d="M117.446 25.5286C115.099 25.5358 112.782 26.0531 110.655 27.0448C108.528 28.0365 106.643 29.4787 105.13 31.2714C103.099 30.5062 100.949 30.1078 98.7794 30.0946C95.871 30.0533 92.9943 30.7013 90.385 31.9857C87.7756 33.27 85.5079 35.1541 83.7678 37.4835C82.0277 39.8129 80.8646 42.5212 80.3739 45.3866C79.8833 48.252 80.079 51.1928 80.9451 53.9679C79.8482 54.9766 78.9722 56.2014 78.3724 57.5651C77.7726 58.9289 77.4619 60.402 77.4598 61.8917C77.4775 64.455 78.3885 66.932 80.036 68.8966C81.6836 70.8611 83.9647 72.1903 86.4869 72.6555C86.6125 72.0514 86.6125 71.6277 86.8087 70.9374C87.3425 69.1016 95.3334 65.7438 96.2282 66.3478C96.9326 66.853 97.7346 67.2057 98.5831 67.3834C98.6563 67.3877 98.7297 67.3877 98.8029 67.3834C102.122 67.3749 105.378 66.4793 108.233 64.7895C111.089 63.0996 113.44 60.677 115.044 57.7729C115.845 57.9137 116.656 57.995 117.469 58.0161C117.469 61.2311 118.423 64.374 120.21 67.0472C121.997 69.7204 124.538 71.8039 127.51 73.0342C130.481 74.2646 133.752 74.5865 136.907 73.9593C140.062 73.3321 142.96 71.7839 145.234 69.5105C147.509 67.2371 149.058 64.3407 149.686 61.1874C150.313 58.0341 149.991 54.7657 148.76 51.7954C147.529 48.8251 145.444 46.2863 142.77 44.5002C140.095 42.714 136.95 41.7606 133.734 41.7606C133.731 39.6259 133.307 37.5127 132.487 35.5417C131.666 33.5707 130.466 31.7804 128.953 30.2731C127.441 28.7658 125.646 27.5711 123.672 26.757C121.697 25.9429 119.582 25.5255 117.446 25.5286Z" fill="#7A7877"/>
<path fill-rule="evenodd" clip-rule="evenodd" d="M79.3673 62.5978C79.372 60.7089 79.9367 58.8637 80.9901 57.2954C82.0434 55.7271 83.5383 54.506 85.2857 53.7864C87.0331 53.0667 88.9547 52.8809 90.8078 53.2522C92.6608 53.6236 94.3622 54.5355 95.697 55.8728C97.0317 57.2101 97.9399 58.9128 98.3069 60.7658C98.6739 62.6187 98.4832 64.5388 97.7589 66.2835C97.0346 68.0282 95.8092 69.5192 94.2374 70.5681C92.6656 71.6171 90.8181 72.1769 88.9282 72.1769C87.6706 72.1769 86.4255 71.929 85.2639 71.4473C84.1024 70.9656 83.0474 70.2597 82.1593 69.3698C81.2712 68.48 80.5674 67.4238 80.0883 66.2618C79.6093 65.0997 79.3642 63.8546 79.3673 62.5978Z" fill="#FADDBC"/>
<path d="M62.4279 153.706C64.9554 158.923 77.4598 182.027 88.0568 190.178C92.0994 186.35 121.237 161.535 121.237 161.535C117.516 154.623 99.6271 132.955 93.8263 127.643" stroke="#737999" stroke-width="2" stroke-linecap="round" stroke-linejoin="round"/>
<path d="M82.5701 184.906L117.595 155.981" stroke="#737999" stroke-width="2" stroke-linecap="round" stroke-linejoin="round"/>
<path d="M112.069 124.584C114.055 129.746 116.779 141.789 115.625 153.313" stroke="#737999" stroke-width="2" stroke-linecap="round" stroke-linejoin="round"/>
<path d="M124.966 169.953L138.153 158.256" stroke="#737999" stroke-width="2" stroke-linecap="round" stroke-linejoin="round"/>
<path d="M106.056 101.809C102.78 101.195 99.6618 99.9246 96.8896 98.0748C94.1174 96.225 91.7483 93.8337 89.9249 91.045" stroke="#DEB78B" stroke-width="2" stroke-linecap="round" stroke-linejoin="round"/>
<path d="M92.2643 71.5493C91.1979 71.9507 90.0676 72.1553 88.9282 72.1534C88.0579 72.1532 87.1917 72.0344 86.3535 71.8004" stroke="#DEB78B" stroke-width="2" stroke-linecap="round" stroke-linejoin="round"/>
<path d="M87.0835 68.3563C86.0762 68.0827 85.1656 67.533 84.4545 66.7694C83.7434 66.0058 83.2601 65.0586 83.0592 64.0349C82.8583 63.0112 82.9479 61.9517 83.3178 60.9762C83.6876 60.0007 84.3231 59.148 85.1523 58.5144C85.9816 57.8809 86.9716 57.4917 88.0104 57.3909C89.0493 57.2901 90.0957 57.4816 91.0314 57.9439C91.9671 58.4062 92.7549 59.1207 93.3056 60.0069C93.8564 60.8931 94.1482 61.9155 94.1481 62.9587" stroke="#DEB78B" stroke-width="2" stroke-linecap="round" stroke-linejoin="round"/>
<path d="M171.121 199.499L145.006 195.513L128.796 174.708" stroke="#DEB78B" stroke-width="2" stroke-linecap="round" stroke-linejoin="round"/>
<path fill-rule="evenodd" clip-rule="evenodd" d="M203.894 28.3765H212.944C213.368 28.3765 213.729 28.8786 213.729 29.4984V35.1392C213.729 35.759 213.376 36.2532 212.944 36.2532H203.894C203.462 36.2532 203.109 35.759 203.109 35.1392V29.4984C203.116 28.8786 203.462 28.3765 203.894 28.3765Z" fill="#6A4D57"/>
<path fill-rule="evenodd" clip-rule="evenodd" d="M217.638 32.6758V36.1434C217.638 36.2454 217.567 36.2846 217.489 36.2375L214.475 34.5194L211.468 32.7856C211.382 32.7385 211.382 32.6601 211.468 32.613L214.475 30.8713L217.489 29.1375C217.504 29.1268 217.521 29.1205 217.54 29.1196C217.558 29.1186 217.576 29.123 217.592 29.1321C217.607 29.1413 217.62 29.1548 217.629 29.1711C217.637 29.1874 217.64 29.2057 217.638 29.2238V32.6758Z" fill="#6A4D57"/>
<path d="M197.025 32.3148C197.025 29.677 197.808 27.0984 199.274 24.9052C200.74 22.7119 202.824 21.0025 205.263 19.993C207.701 18.9836 210.384 18.7194 212.973 19.2341C215.561 19.7487 217.939 21.0189 219.805 22.8841C221.672 24.7493 222.942 27.1258 223.457 29.7129C223.972 32.3 223.708 34.9817 222.698 37.4187C221.688 39.8557 219.978 41.9387 217.783 43.4042C215.589 44.8697 213.009 45.6519 210.369 45.6519C206.83 45.6519 203.436 44.2467 200.934 41.7456C198.431 39.2444 197.025 35.852 197.025 32.3148Z" stroke="#6A4D57" stroke-width="2" stroke-linecap="round" stroke-linejoin="round"/>
<path d="M22.8346 1.58698e-06H214.043C216.594 -0.00102942 219.119 0.500304 221.476 1.47535C223.833 2.45039 225.974 3.88003 227.777 5.68256C229.581 7.48509 231.011 9.62517 231.987 11.9805C232.962 14.3358 233.464 16.8602 233.463 19.4093V116.746C233.463 121.894 231.417 126.831 227.775 130.471C224.133 134.111 219.194 136.156 214.043 136.156H22.8346C17.6854 136.153 12.7479 134.108 9.10768 130.468C5.46743 126.828 3.42249 121.893 3.42249 116.746V19.4093C3.42146 16.8608 3.9228 14.3371 4.89789 11.9823C5.87298 9.62749 7.3027 7.48776 9.10538 5.68534C10.9081 3.88291 13.0484 2.45311 15.4041 1.4776C17.7598 0.502095 20.2847 1.37863e-06 22.8346 1.58698e-06V1.58698e-06Z" stroke="#9B9B9B" stroke-width="2" stroke-linecap="round" stroke-linejoin="round"/>
<path d="M232.215 12.4506H4.86682" stroke="#9B9B9B" stroke-width="2" stroke-linecap="round" stroke-linejoin="round"/>
<path d="M17.379 6.45672C17.3775 5.9102 17.5382 5.37551 17.8409 4.92035C18.1435 4.46518 18.5745 4.11001 19.0793 3.89979C19.584 3.68957 20.1398 3.63376 20.6763 3.73943C21.2128 3.84509 21.7059 4.10749 22.0931 4.49338C22.4803 4.87928 22.7442 5.37132 22.8515 5.90723C22.9587 6.44313 22.9045 6.99879 22.6956 7.50385C22.4867 8.00892 22.1325 8.44068 21.678 8.74447C21.2234 9.04826 20.6889 9.21042 20.1421 9.21042C19.4106 9.21043 18.709 8.92055 18.1911 8.40436C17.6731 7.88816 17.3811 7.18776 17.379 6.45672V6.45672Z" stroke="#6A4D57" stroke-width="2" stroke-linecap="round" stroke-linejoin="round"/>
<path d="M28.2586 6.45672C28.257 5.9102 28.4177 5.37551 28.7204 4.92035C29.0231 4.46518 29.454 4.11001 29.9588 3.89979C30.4635 3.68957 31.0193 3.63376 31.5558 3.73943C32.0923 3.8451 32.5854 4.10749 32.9726 4.49338C33.3598 4.87928 33.6238 5.37133 33.731 5.90723C33.8383 6.44313 33.784 6.99879 33.5751 7.50385C33.3662 8.00892 33.0121 8.44068 32.5575 8.74447C32.103 9.04826 31.5684 9.21042 31.0216 9.21043C30.6591 9.21146 30.3 9.14099 29.9648 9.00307C29.6296 8.86514 29.325 8.66247 29.0683 8.40666C28.8116 8.15085 28.608 7.84694 28.469 7.51233C28.3301 7.17772 28.2586 6.819 28.2586 6.45672V6.45672Z" stroke="#6A4D57" stroke-width="2" stroke-linecap="round" stroke-linejoin="round"/>
<path d="M39.1616 6.45672C39.1601 5.9102 39.3208 5.37551 39.6235 4.92035C39.9261 4.46518 40.3571 4.11001 40.8619 3.89979C41.3666 3.68957 41.9224 3.63376 42.4589 3.73943C42.9954 3.84509 43.4885 4.10749 43.8757 4.49338C44.2629 4.87928 44.5268 5.37132 44.6341 5.90723C44.7413 6.44313 44.6871 6.99879 44.4782 7.50385C44.2693 8.00892 43.9151 8.44068 43.4606 8.74447C43.006 9.04826 42.4715 9.21042 41.9247 9.21042C41.1932 9.21043 40.4916 8.92055 39.9737 8.40436C39.4557 7.88816 39.1637 7.18776 39.1616 6.45672V6.45672Z" stroke="#6A4D57" stroke-width="2" stroke-linecap="round" stroke-linejoin="round"/>
<path d="M381.648 234.716L309.031 457.382" stroke="#AADAF1" stroke-width="2" stroke-linecap="round" stroke-linejoin="round"/>
<path fill-rule="evenodd" clip-rule="evenodd" d="M255.897 89.7504H368.453C370.782 89.7504 373.016 90.6753 374.664 92.3217C376.311 93.9681 377.236 96.201 377.236 98.5293V191.426C377.236 193.754 376.311 195.987 374.664 197.633C373.016 199.28 370.782 200.205 368.453 200.205H255.897C253.57 200.201 251.34 199.274 249.696 197.628C248.052 195.982 247.129 193.751 247.129 191.426V98.5293C247.129 96.2037 248.052 93.9732 249.696 92.3273C251.34 90.6813 253.57 89.7546 255.897 89.7504Z" fill="#AADAF1"/>
<path fill-rule="evenodd" clip-rule="evenodd" d="M255.897 89.7426C254.744 89.7416 253.602 89.9677 252.536 90.408C251.471 90.8483 250.502 91.4943 249.687 92.3088C248.871 93.1234 248.224 94.0907 247.782 95.1553C247.341 96.22 247.113 97.3612 247.113 98.5137V191.426C247.124 193.747 248.054 195.97 249.7 197.608C251.346 199.246 253.574 200.166 255.897 200.165H261.541C261.494 199.632 261.368 199.114 261.368 198.596V89.7426H255.897Z" fill="#8DC5E0"/>
<path fill-rule="evenodd" clip-rule="evenodd" d="M296.574 172.817H334.574L355.854 221.191H316.512L296.574 172.817Z" fill="#8DC5E0"/>
</g>
<defs>
<clipPath id="clip0">
<rect width="514" height="493" fill="white"/>
</clipPath>
</defs>
</svg>
